<svg width="32" height="32" viewBox="0 0 32 32" fill="none" xmlns="http://www.w3.org/2000/svg">
<path fill-rule="evenodd" clip-rule="evenodd" d="M15.9999 8C13.5999 8 11.5999 10 11.5999 12.4C11.5999 14.8 13.5999 16.8 15.9999 16.8C18.3999 16.8 20.3999 14.8 20.3999 12.4C20.3999 10 18.3999 8 15.9999 8ZM18.9295 17.4666L13.0745 17.4666L12.8576 17.4725L12.6218 17.4936C10.9302 17.6973 9.57705 19.0077 9.36313 20.6152L9.34109 20.8362L9.33351 21.0578L9.33203 24H10.532L10.5336 21.0564L10.5417 20.8616L10.5668 20.6517C10.7424 19.575 11.5926 18.7351 12.6674 18.5647L12.8714 18.5407L13.0769 18.5331L18.9444 18.5336L19.1312 18.542L19.3379 18.5689C20.3996 18.7581 21.2637 19.6843 21.4358 20.7992L21.4598 21.0103L21.4669 21.2098L21.4654 24H22.6667L22.6668 21.0745L22.6608 20.8581L22.6408 20.6336C22.441 18.9612 21.1258 17.6934 19.4135 17.4942L19.1777 17.4737L18.9295 17.4666ZM19.3334 12.4C19.3334 10.5333 17.8667 9.06667 16.0001 9.06667C14.1334 9.06667 12.6667 10.5333 12.6667 12.4C12.6667 14.2667 14.1334 15.7333 16.0001 15.7333C17.8667 15.7333 19.3334 14.2667 19.3334 12.4Z" fill="#495867"/>
<path fill-rule="evenodd" clip-rule="evenodd" d="M15.9999 8C13.5999 8 11.5999 10 11.5999 12.4C11.5999 14.8 13.5999 16.8 15.9999 16.8C18.3999 16.8 20.3999 14.8 20.3999 12.4C20.3999 10 18.3999 8 15.9999 8ZM18.9295 17.4666L13.0745 17.4666L12.8576 17.4725L12.6218 17.4936C10.9302 17.6973 9.57705 19.0077 9.36313 20.6152L9.34109 20.8362L9.33351 21.0578L9.33203 24H10.532L10.5336 21.0564L10.5417 20.8616L10.5668 20.6517C10.7424 19.575 11.5926 18.7351 12.6674 18.5647L12.8714 18.5407L13.0769 18.5331L18.9444 18.5336L19.1312 18.542L19.3379 18.5689C20.3996 18.7581 21.2637 19.6843 21.4358 20.7992L21.4598 21.0103L21.4669 21.2098L21.4654 24H22.6667L22.6668 21.0745L22.6608 20.8581L22.6408 20.6336C22.441 18.9612 21.1258 17.6934 19.4135 17.4942L19.1777 17.4737L18.9295 17.4666ZM19.3334 12.4C19.3334 10.5333 17.8667 9.06667 16.0001 9.06667C14.1334 9.06667 12.6667 10.5333 12.6667 12.4C12.6667 14.2667 14.1334 15.7333 16.0001 15.7333C17.8667 15.7333 19.3334 14.2667 19.3334 12.4Z" fill="#495867"/>
<g clip-path="url(#clip0_185_19333)">
<path d="M15.9899 25.1397C15.5509 24.8823 13.3027 23.5122 13.3027 22.2102C13.3027 21.441 13.9263 20.8174 14.6955 20.8174C15.1666 20.8112 15.6074 21.0488 15.8613 21.4457C15.9128 21.5167 16.0122 21.5326 16.0833 21.481C16.0969 21.4712 16.1088 21.4592 16.1186 21.4457C16.5396 20.8019 17.4028 20.6212 18.0466 21.0422C18.4407 21.2999 18.6779 21.7393 18.6772 22.2102C18.6772 23.5273 16.429 24.8899 15.9899 25.1397Z" fill="#495867" stroke="#495867" stroke-width="0.3"/>
</g>
<defs>
<clipPath id="clip0_185_19333">
<rect width="5.98" height="5.98" fill="white" transform="translate(13 20)"/>
</clipPath>
</defs>
</svg>
