<svg width="22" height="22" viewBox="0 0 22 22" fill="none" xmlns="http://www.w3.org/2000/svg">
<path d="M3.78349 9.40756H6.96848V10.8076H3.78349V9.40756Z" fill="#495867"/>
<path d="M12.1135 9.40756H8.92849V10.8076H12.1135V9.40756Z" fill="#495867"/>
<path d="M14.0735 9.40756H17.2585V10.8076H14.0735V9.40756Z" fill="#495867"/>
<path d="M6.96848 12.9075H3.78349V14.3075H6.96848V12.9075Z" fill="#495867"/>
<path d="M8.92849 12.9075H12.1135V14.3075H8.92849V12.9075Z" fill="#495867"/>
<path d="M17.2585 12.9075H14.0735V14.3075H17.2585V12.9075Z" fill="#495867"/>
<path d="M3.78349 16.4075H6.96848V17.8075H3.78349V16.4075Z" fill="#495867"/>
<path d="M12.1135 16.4075H8.92849V17.8075H12.1135V16.4075Z" fill="#495867"/>
<path d="M14.0735 16.4075H17.2585V17.8075H14.0735V16.4075Z" fill="#495867"/>
<path fill-rule="evenodd" clip-rule="evenodd" d="M17.0485 0.5V1.6375H21.021V21.5H0.0209961V1.6375H3.92349V0.5H5.3935V1.6375H15.6485V0.5H17.0485ZM3.92349 4.91V3.0375H1.421V5.9075H19.6735V3.0375H17.0485V4.91H15.6485V3.0375H5.32349V4.91H3.92349ZM1.421 7.3075V20.1H19.6735V7.3075H1.421Z" fill="#495867"/>
</svg>
