<svg width="33" height="33" viewBox="0 0 33 33" fill="none" xmlns="http://www.w3.org/2000/svg">
<path d="M30.516 1.56997C29.1473 0.201255 26.8376 0.575513 25.9715 2.30779L24.5386 5.17353L22.1541 7.55809C19.7374 9.97472 17.2352 10.2314 15.5778 10.905C13.5034 11.6001 11.5893 12.7763 10.0388 14.3268L1.55919 22.8064C0.457808 23.9078 0.457808 25.7149 1.55919 26.8163L6.90573 32.1628C8.00712 33.2642 9.81425 33.2642 10.9156 32.1628C11.9956 31.0828 17.4277 25.6508 19.3952 23.6832C20.9457 22.1327 22.122 20.2187 22.817 18.1442C23.4907 16.4868 23.7473 13.9846 26.164 11.568L28.5485 9.18343L31.4143 7.75056C33.1465 6.88442 33.5208 4.58541 32.1521 3.20601L30.516 1.56997ZM16.2622 16.1232C16.6257 15.7597 17.2352 15.7597 17.5988 16.1232C17.9731 16.4975 17.9731 17.0856 17.5988 17.4599C17.2352 17.8234 16.6257 17.8234 16.2622 17.4599C15.8879 17.0963 15.8879 16.4975 16.2622 16.1232ZM13.2253 25.1161L14.2519 26.1426L11.5786 28.8159L4.89543 22.1327L7.5687 19.4595L8.59524 20.486C8.83048 20.7213 9.18336 20.8175 9.50415 20.732C10.4772 20.4753 11.5251 20.7533 12.2416 21.4698C12.958 22.1862 13.236 23.2341 12.9794 24.2072C12.8939 24.5387 12.9901 24.8809 13.2253 25.1161ZM8.24237 30.8262L2.89583 25.4797C2.53226 25.1161 2.53226 24.5066 2.89583 24.143L3.5588 23.4694L10.242 30.1525L9.579 30.8155C9.20474 31.1898 8.60593 31.1898 8.24237 30.8262ZM18.0586 22.3466L15.5885 24.8167L14.9255 24.1537C15.1287 22.6995 14.6475 21.2024 13.5889 20.1438C12.5303 19.0852 11.044 18.604 9.579 18.8072L8.91603 18.1335L11.3861 15.6634C12.68 14.3696 14.2626 13.3751 15.9841 12.7656V14.1236C15.5992 14.2626 15.2356 14.4765 14.9362 14.7866C13.8241 15.8987 13.8241 17.6844 14.9362 18.7965C16.0376 19.8979 17.8447 19.8979 18.9461 18.7965C19.2455 18.4971 19.4701 18.1335 19.6091 17.7379H20.9671C20.3469 19.4595 19.3525 21.0527 18.0586 22.3466ZM24.8273 10.2207C22.3038 12.7442 21.7798 15.4068 21.5873 15.8559H19.5984C19.4594 15.4603 19.2348 15.0967 18.9247 14.7866C18.6146 14.4765 18.2511 14.252 17.8554 14.1129V12.1347C18.2725 11.9529 20.9778 11.3969 23.4907 8.89472L25.3192 7.06621L26.6558 8.40284L24.8273 10.2207ZM30.5695 6.05037L28.1743 7.24799L26.4634 5.5371L27.661 3.14185C27.9497 2.56442 28.7196 2.43611 29.1794 2.89591L30.8154 4.53195C31.2752 4.99175 31.1469 5.76165 30.5695 6.05037Z" fill="#333333"/>
</svg>
