<svg width="16" height="16" viewBox="0 0 16 16" fill="none" xmlns="http://www.w3.org/2000/svg">
<path fill-rule="evenodd" clip-rule="evenodd" d="M1.91681 0H15.3334V16H1.91681L1.91654 13.2405L0.666748 13.2407V12.2078L1.91656 12.208V8.70468L0.666748 8.70508V7.67254L1.91656 7.67259V3.98045L0.666748 3.98068V2.9478L1.91655 2.94798L1.91681 0ZM14.2616 14.9668V1.03183H2.98806L2.98767 2.94797L4.08217 2.94779V3.98067L2.98803 3.98043V7.67259L4.08217 7.67254V8.70508L2.98803 8.70467V12.208L4.08217 12.2078V13.2407L2.98766 13.2405L2.98807 14.9668H14.2616ZM9.01556 4.38542L5.14689 7.7122L5.82351 8.44859L5.82352 11.4644H12.2079L12.2075 8.44892L12.8842 7.7122L9.01556 4.38542ZM9.01493 5.56655L6.7381 7.52547L6.73846 10.5819H11.2914L11.2925 7.52547L9.01493 5.56655Z" fill="#495867"/>
</svg>
