<svg width="17" height="20" viewBox="0 0 17 20" fill="none" xmlns="http://www.w3.org/2000/svg">
<path fill-rule="evenodd" clip-rule="evenodd" d="M8.58329 0C4.21163 0 0.666626 3.625 0.666626 8.095C0.666626 14.285 8.58329 20 8.58329 20C8.58329 20 16.5 14.285 16.5 8.095C16.5 3.625 12.955 0 8.58329 0ZM8.58403 1.33329C12.214 1.33329 15.1674 4.36662 15.1674 8.09495C15.1674 12.4533 10.469 16.7566 8.57736 18.31C6.20569 16.3766 2.00069 12.115 2.00069 8.09495C2.00069 4.36662 4.95403 1.33329 8.58403 1.33329ZM4.85869 7.6194C4.85869 5.5144 6.52703 3.8094 8.58369 3.8094C10.6404 3.8094 12.3087 5.5144 12.3087 7.6194C12.3087 9.72274 10.6404 11.4277 8.58369 11.4277C6.52703 11.4277 4.85869 9.72274 4.85869 7.6194ZM10.977 7.61929C10.977 6.25263 9.90196 5.14262 8.58363 5.14262C7.26529 5.14262 6.19029 6.25263 6.19029 7.61929C6.19029 8.98429 7.26529 10.0943 8.58363 10.0943C9.90196 10.0943 10.977 8.98429 10.977 7.61929Z" fill="#FF6200"/>
</svg>
