<svg version="1.2" xmlns="http://www.w3.org/2000/svg" viewBox="0 0 33 24" width="33" height="24">
	<title>Vector-svg</title>
	<style>
		.s0 { fill: #333333 } 
	</style>
	<path id="Layer" fill-rule="evenodd" class="s0" d="m32.9 1.5v20.7c0 0.5-0.4 0.9-0.9 0.9h-30.3c-0.5 0-0.8-0.4-0.8-0.9v-20.7c0-0.5 0.3-0.9 0.8-0.9h30.3c0.5 0 0.9 0.4 0.9 0.9zm-1.7 0.8h-16.6v8.7h16.6zm-28.6 0v8.7h10.3v-8.7zm28.6 19.1v-8.7h-28.6v8.7z" />
	<path id="Layer" fill-rule="evenodd" class="s0" d="m3.9 5.7c0.1-0.3 0.4-0.5 0.6-0.5h1.9l0.6-1.7c0.1-0.3 0.3-0.5 0.6-0.5c0.3 0 0.5 0.2 0.6 0.5l0.6 1.7h1.8c0.3 0 0.5 0.2 0.6 0.5c0.1 0.2 0 0.5-0.2 0.7l-1.5 1.1l0.5 1.7c0.1 0.3 0 0.6-0.2 0.7q-0.2 0.2-0.3 0.2q-0.3 0-0.4-0.2l-1.5-1l-1.5 1c-0.3 0.2-0.6 0.2-0.8 0c-0.2-0.1-0.3-0.4-0.2-0.7l0.6-1.7l-1.5-1.1c-0.2-0.2-0.3-0.5-0.3-0.7zm4.8 0.8h-0.4c-0.2 0-0.5-0.2-0.6-0.4l-0.1-0.4l-0.1 0.4c-0.1 0.2-0.3 0.4-0.6 0.4h-0.4l0.3 0.2c0.2 0.2 0.3 0.5 0.2 0.7l-0.1 0.4l0.3-0.2c0.2-0.2 0.5-0.2 0.8 0l0.3 0.2l-0.2-0.4c0-0.2 0-0.5 0.3-0.7z" />
</svg>