<svg width="32" height="32" viewBox="0 0 32 32" fill="none" xmlns="http://www.w3.org/2000/svg">
<path fill-rule="evenodd" clip-rule="evenodd" d="M15.9999 7.3335C17.2061 7.3335 18.236 7.81358 19.0814 8.7684C19.8531 9.64007 20.2725 10.621 20.337 11.7071L20.3458 12.0059L20.345 13.9643L22.5359 13.9649L22.6666 14.0962V24.5355L22.5359 24.6668H9.33325V24.5355V14.0962V13.9649L11.6535 13.9643L11.654 12.0059C11.654 11.0113 11.9416 10.1015 12.515 9.27955L12.7167 9.00884L12.9184 8.7684C13.7638 7.81358 14.7937 7.3335 15.9999 7.3335ZM15.9999 8.23805C15.0451 8.23805 14.2573 8.62408 13.6266 9.40219C13.0538 10.109 12.7398 10.8814 12.6827 11.7229L12.6732 12.0059L12.6731 13.9643H19.3254L19.3266 12.0059C19.3266 11.1491 19.0699 10.3616 18.5546 9.64021L18.3732 9.40219C17.7425 8.62408 16.9547 8.23805 15.9999 8.23805ZM10.3752 14.9872H21.6235V23.6426H10.3752V14.9872ZM16.0026 17.0668L16.2101 17.0797C16.4832 17.1117 16.728 17.2075 16.9422 17.367C17.2092 17.5659 17.3951 17.8308 17.4994 18.1625C17.5362 18.2956 17.5565 18.4284 17.56 18.5607C17.5647 18.7358 17.54 18.9094 17.4863 19.0811C17.4078 19.3318 17.2783 19.5504 17.1251 19.6779L17.0305 19.7431V20.7654C17.0305 20.8641 17.0264 20.9629 17.0182 21.0616C17.0087 21.1766 16.9749 21.2832 16.922 21.371C16.8323 21.5512 16.705 21.6926 16.5417 21.7928C16.4203 21.8673 16.297 21.9144 16.1723 21.9333L16.0473 21.9428H15.9999C15.7845 21.9428 15.589 21.8835 15.417 21.7654C15.246 21.6479 15.1227 21.4966 15.0471 21.3062C15.0232 21.2344 15.0072 21.1655 14.9991 21.0997L14.993 21.0031L15.0421 19.8456C14.7853 19.6393 14.6047 19.376 14.5021 19.0584C14.398 18.736 14.4068 18.4226 14.5275 18.1285C14.6467 17.8036 14.8397 17.5409 15.1051 17.3433C15.3203 17.1829 15.5568 17.0918 15.812 17.0706L16.0026 17.0668ZM15.8407 18.0304C15.8897 18.0234 15.9427 18.0199 15.9999 18.0199C16.0904 18.0199 16.1862 18.0431 16.288 18.0908C16.3821 18.1349 16.4525 18.1994 16.5021 18.2866C16.5629 18.3654 16.593 18.4319 16.6051 18.5045C16.6185 18.5853 16.6185 18.6659 16.6051 18.7467C16.5918 18.8396 16.5604 18.9185 16.5099 18.9882C16.456 19.0626 16.3883 19.1271 16.3063 19.182C16.331 19.16 16.286 19.1751 16.2508 19.2103L16.1893 19.2631C16.1575 19.2966 16.1296 19.3415 16.1127 19.3924C16.0925 19.4532 16.0823 19.5147 16.0823 19.5766V20.8367L16.079 20.9001C16.0748 20.9369 16.0669 20.9628 16.0569 20.9778C16.0571 20.9753 16.0525 20.9773 16.0474 20.9796C16.0446 20.9808 16.0416 20.9821 16.0392 20.9827L15.9999 20.9907C15.9892 20.9907 15.9775 20.9878 15.9561 20.9756L15.9433 20.9507L15.9412 19.5885L15.9318 19.5023L15.8816 19.3579C15.8607 19.3139 15.8278 19.2703 15.7855 19.2363L15.6897 19.1509L15.616 19.1103C15.5964 19.0996 15.5751 19.0931 15.5528 19.0903C15.5635 19.0891 15.5665 19.0843 15.5648 19.0771L15.4946 18.9743L15.4537 18.8997C15.3603 18.7384 15.3513 18.5933 15.4201 18.4426C15.4963 18.2757 15.6011 18.1535 15.7356 18.0725C15.772 18.0483 15.8049 18.0356 15.8407 18.0304ZM15.5263 19.0887C15.5352 19.0887 15.5441 19.0892 15.5528 19.0903C15.5467 19.091 15.538 19.0906 15.5263 19.0887Z" fill="#495867"/>
</svg>
