<svg width="22" height="16" viewBox="0 0 22 16" fill="none" xmlns="http://www.w3.org/2000/svg">
<path fill-rule="evenodd" clip-rule="evenodd" d="M21.6666 0.666504H0.333252V15.3332H21.6666V0.666504ZM1.36746 1.70507L20.5573 1.7751V1.92475V14.1422V14.2919L1.36746 14.2205V1.70507ZM2.32379 11.8416H4.7728V12.7261H2.32379V11.8416ZM19.7236 11.8416H17.2731V12.7261H19.7236V11.8416ZM10.5617 4.06828H11.4367L11.4375 4.51291V4.65806L11.7358 4.71725C12.1049 4.8526 12.4146 5.08829 12.624 5.39613L12.7023 5.52297L12.7784 5.67728C12.8466 5.83521 12.8908 6.00334 12.9087 6.17564L12.9157 6.26622L12.9185 6.37603H11.8821L11.8737 6.29813C11.8426 5.88636 11.4375 5.79984 11.4375 5.79984L11.4375 7.10188L11.5448 7.13895L11.6045 7.15537L11.805 7.22349C12.5874 7.53173 13.1307 8.2604 13.1845 9.10413L13.189 9.24528L13.1796 9.4454C13.0992 10.3041 12.5066 11.0434 11.6675 11.3117L11.6381 11.3201L11.546 11.3464L11.4375 11.3672L11.4367 11.9284H10.5617L10.5621 11.3672L10.4538 11.3467L10.3967 11.3314L10.2024 11.2662C9.44291 10.971 8.90123 10.271 8.82114 9.45202L8.81509 9.37695L8.81037 9.20909H9.84388L9.85629 9.40552C9.8964 10.0203 10.5621 10.2896 10.5621 10.2896V8.07467L10.2095 7.90722C9.61461 7.62879 9.2194 7.0888 9.17115 6.47194L9.16612 6.34042L9.17739 6.14892C9.25196 5.51771 9.691 4.96539 10.3296 4.71807L10.5621 4.67243V4.52975L10.5617 4.06828ZM12.1454 9.09638L12.1556 9.24732L12.1539 9.30583C12.1381 9.94542 11.4374 10.2447 11.4374 10.2447V8.29849C11.4374 8.29849 12.1051 8.59849 12.1454 9.09638ZM10.1359 6.33418C10.1681 6.03865 10.4046 5.74757 10.6097 5.76698V6.91013C10.4046 6.92375 10.1036 6.6297 10.1359 6.33418ZM4.7728 2.91888H2.32379V3.80187H4.7728V2.91888ZM17.2731 2.91888H19.7236V3.80187H17.2731V2.91888Z" fill="#495867"/>
</svg>
