<svg width="63" height="63" viewBox="0 0 63 63" fill="none" xmlns="http://www.w3.org/2000/svg">
<path d="M31.5529 61.952C48.3892 61.952 62.04 48.3235 62.04 31.5089C62.04 14.6944 48.3892 1.06586 31.5529 1.06586C14.7167 1.06586 1.06586 14.6944 1.06586 31.5089C1.06586 48.3235 14.7167 61.952 31.5529 61.952Z" fill="#F0F0F0" stroke="#FF6200" stroke-width="1.86829"/>
<mask id="mask0_185_16054" style="mask-type:alpha" maskUnits="userSpaceOnUse" x="0" y="0" width="63" height="63">
<path d="M31.5529 61.952C48.3892 61.952 62.04 48.3235 62.04 31.5089C62.04 14.6944 48.3892 1.06586 31.5529 1.06586C14.7167 1.06586 1.06586 14.6944 1.06586 31.5089C1.06586 48.3235 14.7167 61.952 31.5529 61.952Z" fill="white" stroke="white" stroke-width="1.86829"/>
</mask>
<g mask="url(#mask0_185_16054)">
<path fill-rule="evenodd" clip-rule="evenodd" d="M31.5529 38.4349C38.924 38.4349 44.8994 32.4683 44.8994 25.1082C44.8994 17.7481 38.924 11.7816 31.5529 11.7816C24.1818 11.7816 18.2064 17.7481 18.2064 25.1082C18.2064 32.4683 24.1818 38.4349 31.5529 38.4349Z" fill="#DDDBDB"/>
<path fill-rule="evenodd" clip-rule="evenodd" d="M31.7436 100.689C48.1705 100.689 61.4872 87.3923 61.4872 70.9899C61.4872 54.5874 48.1705 41.2905 31.7436 41.2905C15.3167 41.2905 2 54.5874 2 70.9899C2 87.3923 15.3167 100.689 31.7436 100.689Z" fill="#DDDBDB"/>
</g>
</svg>
