<svg width="28" height="27" viewBox="0 0 28 27" fill="none" xmlns="http://www.w3.org/2000/svg">
<path d="M26.3612 13.3905C26.821 13.3905 27.1525 13.059 27.1953 12.535V7.50927C27.1953 7.28472 27.1097 7.08155 26.9493 6.92115C26.7889 6.76076 26.5858 6.67521 26.3612 6.67521H19.8705C19.7422 6.67521 19.6246 6.60036 19.5711 6.47204C19.5177 6.35442 19.5497 6.21541 19.646 6.11917C19.7101 6.05501 19.7743 6.02293 19.8171 6.00155C21.1323 4.63283 21.1323 2.44076 19.8171 1.12551C19.1862 0.494618 18.2773 0.12036 17.3791 0.12036C16.4808 0.12036 15.5719 0.494618 14.941 1.12551C14.6737 1.39284 14.385 1.79917 14.107 2.18412C14.0428 2.26967 13.9359 2.32313 13.829 2.32313C13.722 2.32313 13.6258 2.25897 13.5616 2.17343C13.2515 1.67085 12.9842 1.31798 12.7383 1.07204C12.1074 0.441153 11.1985 0.0668945 10.3002 0.0668945C9.40203 0.0668945 8.49312 0.441153 7.86223 1.07204C6.54698 2.44076 6.54698 4.63283 7.86223 5.94808C7.91569 6.00155 7.93708 6.02293 8.01193 6.06571C8.15094 6.12986 8.2151 6.27957 8.18302 6.42927C8.15094 6.57897 8.02262 6.67521 7.86223 6.67521H1.37153C0.911732 6.67521 0.537476 7.04947 0.537476 7.50927V12.5564C0.537476 13.0162 0.911732 13.3905 1.37153 13.3905C1.55332 13.3905 1.69233 13.5402 1.69233 13.7112V25.8265C1.69233 26.2863 2.06658 26.6606 2.52639 26.6606H25.1422C25.5806 26.6606 25.987 26.3077 26.0297 25.8586V13.7006C26.0297 13.5295 26.1794 13.3905 26.3612 13.3905ZM14.8983 4.21581C15.0373 3.82016 15.4222 2.84709 16.0959 2.28036C16.3953 1.95957 16.823 1.76709 17.2935 1.7564C17.7961 1.74571 18.288 1.93818 18.6408 2.29105C18.983 2.63323 19.1648 3.08234 19.1648 3.56353C19.1648 4.04472 18.9723 4.49382 18.6408 4.836C18.0206 5.4562 16.4381 6.20472 15.3901 6.20472C15.0907 6.20472 14.9303 6.12986 14.8983 6.10848C14.8555 6.08709 14.8127 6.05501 14.7806 6.00155C14.4705 5.57382 14.7913 4.5259 14.8983 4.21581ZM9.08123 2.22689C9.45549 1.85264 9.88321 1.67085 10.3537 1.67085C10.8777 1.67085 11.2947 1.9061 11.6369 2.13066C11.6583 2.14135 11.6796 2.16274 11.6903 2.18412C12.1181 2.63323 12.5351 3.38175 12.8024 4.17303C12.9735 4.66491 13.2195 5.56313 12.9307 5.95878C12.8987 6.00155 12.8559 6.03363 12.8131 6.06571C12.781 6.0764 12.6099 6.16194 12.3212 6.16194C11.284 6.16194 9.70143 5.41343 9.07054 4.79323C8.37549 4.07679 8.37549 2.93264 9.08123 2.22689ZM12.9949 24.7251C12.9949 24.9069 12.8452 25.0459 12.6741 25.0459H3.62777C3.44599 25.0459 3.30698 24.8962 3.30698 24.7251V13.7112C3.30698 13.5295 3.45668 13.3905 3.62777 13.3905H12.6741C12.8559 13.3905 12.9949 13.5402 12.9949 13.7112V24.7251ZM24.3616 24.7251C24.3616 24.9069 24.2119 25.0459 24.0408 25.0459H14.9945C14.8127 25.0459 14.6737 24.8962 14.6737 24.7251V13.7112C14.6737 13.5295 14.8234 13.3905 14.9945 13.3905H24.0408C24.2226 13.3905 24.3616 13.5402 24.3616 13.7112V24.7251ZM25.5272 11.455C25.5272 11.6368 25.3775 11.7758 25.2064 11.7758H2.46223C2.28045 11.7758 2.14144 11.6261 2.14144 11.455V8.67481C2.14144 8.49303 2.29114 8.35402 2.46223 8.35402H25.1957C25.3775 8.35402 25.5165 8.50373 25.5165 8.67481V11.455H25.5272Z" fill="#333333"/>
</svg>
