<svg width="18" height="18" viewBox="0 0 18 18" fill="none" xmlns="http://www.w3.org/2000/svg">
<path fill-rule="evenodd" clip-rule="evenodd" d="M11.8019 0.333496L11.5157 0.368034C10.5236 0.529244 9.70674 1.22132 9.30307 2.23493L9.26409 2.33735L9.18512 2.57662L6.96179 2.57645L6.61315 9.2581L6.09029 9.39282L3.89075 10.767L3.73618 10.6106H0.393318L0.333252 10.6706V17.6068L0.393318 17.6668H3.7369L3.79661 17.6071L3.79479 17.3459L9.32402 16.7773L9.61189 16.7092L9.86343 16.6255C10.6371 16.3403 11.5951 15.7442 12.6826 14.89L12.8715 14.7402L17.6076 14.7717L17.6666 14.7095L17.0116 2.57645L14.7497 2.57662L14.6775 2.35592L14.5847 2.12392C14.1281 1.0877 12.9989 0.373623 11.8376 0.333665L11.8019 0.333496ZM2.63313 11.7676V16.5086H1.49305V11.7676H2.63313ZM12.2568 9.22075L12.2055 9.1797L11.0484 9.39158L10.4704 9.5065C9.89312 9.62463 9.31778 9.75236 8.74528 9.88948L7.60629 10.1757L6.51221 10.4702L6.47515 10.486L3.8364 12.0818L3.82872 16.1804L9.16401 15.6322L9.23253 15.6175C9.46675 15.5614 9.75905 15.4356 10.1016 15.2479L10.8658 14.8012L8.26019 14.8481L8.18722 14.8396C7.77707 14.7786 7.42761 14.5093 7.3041 14.1438L7.26765 14L7.25678 13.8663L7.23137 12.3885L7.23398 12.3123C7.24095 12.2125 7.26214 12.1188 7.29987 12.0198L7.39486 11.841L7.43396 11.7814L7.47579 11.7289L7.58277 11.6251L7.6779 11.5542L7.77853 11.4967L7.94606 11.4285L8.54409 11.2543L8.7851 11.1794C10.4334 10.6596 12.0888 9.97459 12.4071 9.69092L12.4722 9.63293L12.4509 9.5484L12.4332 9.48914C12.3998 9.39224 12.347 9.30571 12.285 9.24433L12.2568 9.22075ZM8.06487 3.73339H9.01983L9.02106 5.6935H10.1825L10.181 3.73339H13.751L13.7523 5.6935H14.9137L14.9122 3.73339H15.9105L16.4432 13.6153H14.1972L14.1879 13.5881L12.5993 13.6154L12.42 13.6151L12.4154 13.6188L8.4123 13.6886L8.37005 12.511L9.29883 12.2282L9.62614 12.1218C11.5563 11.4832 12.8755 10.8425 13.3592 10.2682C13.5261 10.0412 13.6122 9.78324 13.6122 9.51505C13.6122 9.28655 13.5513 9.057 13.433 8.8417C13.1717 8.36697 12.6898 8.03662 12.237 8.01918L12.1693 8.01893L12.1114 8.0235L11.019 8.22224L10.4058 8.3463C9.88177 8.45582 9.33921 8.57792 8.76673 8.71504L8.47794 8.78486L7.79191 8.95447L8.06487 3.73339ZM12.1651 1.50095L11.9674 1.48865C11.4335 1.48865 10.9528 1.75285 10.6242 2.21841L10.3934 2.57661H13.5413L13.3079 2.21374L13.252 2.1395C12.9664 1.7775 12.5881 1.5541 12.1651 1.50095Z" fill="#495867"/>
</svg>
