<svg version="1.2" xmlns="http://www.w3.org/2000/svg" viewBox="0 0 26 26" width="26" height="26">
	<title>Vector-svg</title>
	<style>
		.s0 { fill: #333333 } 
	</style>
	<path id="Layer" fill-rule="evenodd" class="s0" d="m25.6 4.6v18.1c0 1.3-1.2 2.4-2.5 2.4h-20.5c-1.3 0-2.5-1.1-2.5-2.4v-18.1c0-1.4 1.2-2.5 2.5-2.5h5.4v-0.7c0-0.6 0.5-0.9 0.9-0.9c0.4 0 0.9 0.4 0.9 0.9v0.7h6.1v-0.7c0-0.5 0.5-0.8 0.9-0.8c0.4 0 0.9 0.3 0.9 0.8v0.7h5.4c1.4 0 2.5 1.1 2.5 2.5zm-1.8 18.1v-14.1h-21.8v14.1c0 0.4 0.3 0.7 0.6 0.7h20.5c0.4 0 0.7-0.3 0.7-0.7zm0-18.1c0-0.4-0.3-0.7-0.7-0.7h-5.4v0.7c0 0.6-0.5 0.9-0.9 0.9c-0.4 0-0.9-0.3-0.9-0.9v-0.7h-6.1v0.7c0 0.6-0.5 0.9-0.9 0.9c-0.4 0-0.9-0.3-0.9-0.9v-0.7h-5.4c-0.4 0-0.7 0.3-0.7 0.7v2.2h21.9z" />
	<path id="Layer" fill-rule="evenodd" class="s0" d="m7.9 17.5c-0.9-1-1.3-2-1.3-3.1c0-1.1 0.4-2.1 1.1-2.8c0.6-0.7 1.6-1.2 2.6-1.2q1.2 0 2.1 0.8q0.2 0.1 0.4 0.3q0.2-0.2 0.4-0.3q1-0.8 2.2-0.8c1 0 1.9 0.5 2.6 1.2c0.7 0.7 1.1 1.7 1.1 2.8c0 1.1-0.4 2.1-1.3 3.1c-0.7 0.9-1.7 1.7-2.9 2.7c-0.3 0.3-0.8 0.7-1.3 1.1c-0.2 0.2-0.5 0.3-0.7 0.3q-0.5 0-0.8-0.3q-0.7-0.6-1.3-1.1c-1.2-1-2.2-1.8-2.9-2.7zm0.5-3.1c0 0.7 0.2 1.3 0.8 2c0.7 0.7 1.6 1.6 2.7 2.5q0.5 0.4 1 0.8q0.5-0.4 0.9-0.8c1.1-0.9 2.1-1.8 2.7-2.5c0.6-0.7 0.9-1.3 0.9-2c0-0.6-0.2-1.2-0.6-1.6c-0.4-0.4-0.9-0.6-1.4-0.6q-0.6 0-1.1 0.3c-0.3 0.3-0.5 0.6-0.6 0.8c-0.2 0.3-0.5 0.4-0.8 0.4c-0.4 0-0.7-0.1-0.9-0.4c-0.1-0.2-0.3-0.5-0.6-0.8q-0.5-0.3-1.1-0.3c-0.5 0-1 0.2-1.3 0.6c-0.4 0.4-0.6 1-0.6 1.6z" />
</svg>