<svg width="27" height="34" viewBox="0 0 27 34" fill="none" xmlns="http://www.w3.org/2000/svg">
<path d="M11.9361 33.5314H15.7856C16.2454 33.5314 16.609 33.1572 16.609 32.7081V29.7568C16.609 29.6712 16.6839 29.5964 16.7694 29.5964H25.9654C26.2648 29.5964 26.5429 29.436 26.6926 29.1687C26.8423 28.9013 26.8316 28.5805 26.6712 28.3346L21.6454 20.2827C21.6134 20.2292 21.6134 20.1758 21.6454 20.1223C21.6775 20.0689 21.731 20.0368 21.7844 20.0368H22.3833C22.6934 20.0368 22.9714 19.8657 23.1104 19.5984C23.2494 19.331 23.2387 18.9995 23.0569 18.7429L19.5496 13.653C19.5175 13.6102 19.5068 13.5461 19.5389 13.4926C19.5603 13.4391 19.6138 13.4071 19.6779 13.4071C19.9666 13.3857 20.234 13.2146 20.3623 12.958C20.5013 12.6799 20.4799 12.3485 20.2981 12.1025L15.1868 5.05578C15.1654 5.0237 15.1547 4.97023 15.1547 4.92746C15.1654 4.88469 15.1868 4.84192 15.2296 4.82053C15.9567 4.35003 16.3844 3.55875 16.3844 2.7033C16.3844 1.3132 15.2617 0.19043 13.8716 0.19043C12.4815 0.19043 11.3587 1.3239 11.3587 2.7033C11.3587 3.55875 11.7864 4.35003 12.5136 4.82053C12.5456 4.84192 12.5777 4.88469 12.5884 4.92746C12.5991 4.97023 12.5884 5.01301 12.5563 5.05578L7.44505 12.1025C7.26327 12.3591 7.23119 12.6799 7.3809 12.958C7.50921 13.2146 7.77654 13.3857 8.06525 13.4071C8.11872 13.4071 8.17218 13.4498 8.20426 13.4926C8.22564 13.5461 8.22565 13.6102 8.19357 13.653L4.68625 18.7429C4.51516 18.9995 4.49377 19.3203 4.63278 19.5984C4.77179 19.8657 5.0605 20.0368 5.3599 20.0368H5.95871C6.01218 20.0368 6.06565 20.0689 6.09773 20.1223C6.12981 20.1758 6.11911 20.2399 6.09773 20.2827L1.07199 28.3346C0.911594 28.5912 0.900907 28.912 1.05061 29.1687C1.20031 29.436 1.47832 29.5964 1.77773 29.5964H2.7508H2.7615C2.78289 29.5964 2.80427 29.5964 2.82565 29.5964H10.9738C11.0593 29.5964 11.1342 29.6712 11.1342 29.7568V32.7081C11.1128 33.1679 11.487 33.5314 11.9361 33.5314ZM14.9623 31.7243C14.9623 31.8098 14.8874 31.8847 14.8019 31.8847H12.9306C12.8451 31.8847 12.7702 31.8098 12.7702 31.7243V29.7568C12.7702 29.6712 12.8451 29.5964 12.9306 29.5964H14.8019C14.8874 29.5964 14.9623 29.6712 14.9623 29.7568V31.7243ZM21.3674 23.0629C21.4102 23.0736 21.453 23.095 21.4744 23.1378L24.3294 27.7037C24.3615 27.7572 24.3615 27.8106 24.3294 27.8641C24.2973 27.9176 24.2438 27.9496 24.1904 27.9496H13.1017C13.0268 27.9496 12.9627 27.8962 12.9413 27.8213C12.9306 27.7465 12.9734 27.6716 13.0375 27.6395C14.3421 27.1477 15.6146 26.5809 16.8229 25.9287C18.8439 24.8593 20.3302 23.79 21.2284 23.095C21.2712 23.0629 21.3247 23.0522 21.3674 23.0629ZM13.8609 1.83716C14.3314 1.83716 14.727 2.22211 14.727 2.7033C14.727 3.18449 14.3421 3.56944 13.8609 3.56944C13.3904 3.56944 12.9948 3.18449 12.9948 2.7033C13.0054 2.22211 13.3904 1.83716 13.8609 1.83716ZM9.90446 11.5037L13.7326 6.22132C13.7967 6.13578 13.9357 6.13578 13.9892 6.22132L15.7429 8.63796C15.7749 8.68073 15.7856 8.74489 15.7536 8.79835C15.0585 10.2633 13.4118 12.9045 10.2359 14.0914C10.2146 14.1021 10.2039 14.1021 10.1825 14.1021C10.129 14.1021 10.0862 14.0807 10.0542 14.038C10.0114 13.9845 10.0114 13.9096 10.0435 13.8455L10.5995 13.0435C10.7706 12.7869 10.792 12.4661 10.653 12.1881C10.5247 11.9421 10.2894 11.7817 10.0114 11.7496C9.95792 11.7389 9.90446 11.7069 9.88307 11.6534C9.86169 11.6106 9.87238 11.5465 9.90446 11.5037ZM9.86168 16.0376C9.87237 15.9841 9.91516 15.9306 9.97932 15.9199C11.6047 15.4601 13.091 14.6261 14.3742 13.4498C15.3045 12.5944 16.1171 11.5786 16.7801 10.4344C16.8122 10.3916 16.8549 10.3595 16.9084 10.3595C16.9619 10.3595 17.0153 10.3809 17.0474 10.4237L17.828 11.5037C17.8601 11.5465 17.8708 11.6106 17.8494 11.6641C17.828 11.7176 17.7745 11.7496 17.7211 11.7603C17.4538 11.7924 17.2078 11.9528 17.0795 12.1987C16.9405 12.4661 16.9512 12.7976 17.133 13.0542L20.6403 18.1441C20.6724 18.1976 20.6831 18.2617 20.651 18.3045C20.6189 18.358 20.5654 18.39 20.512 18.39H20.0201C19.7207 18.39 19.4427 18.5504 19.293 18.8178C19.1433 19.0851 19.154 19.4059 19.3144 19.6518L19.9559 20.6784C19.988 20.7318 19.988 20.796 19.9559 20.8494C19.9239 20.9029 19.8704 20.9243 19.8169 20.9243H19.8062C16.8763 20.689 14.2245 19.2989 12.5243 18.1762C11.6367 17.5881 10.7599 16.9251 9.92585 16.1873C9.87239 16.1552 9.85099 16.091 9.86168 16.0376ZM3.55278 27.9283C3.55278 27.9283 3.54208 27.9283 3.55278 27.9283C3.48862 27.9283 3.43516 27.8962 3.40308 27.8534C3.371 27.7999 3.371 27.7358 3.40308 27.693L8.41812 19.6625C8.57851 19.4059 8.58921 19.0851 8.43951 18.8285C8.28981 18.5611 8.01178 18.4007 7.71238 18.4007H7.2205C7.15634 18.4007 7.10287 18.3687 7.08149 18.3152C7.04941 18.2617 7.06011 18.1976 7.09219 18.1548L7.94763 16.9144C7.96902 16.8716 8.01179 16.8502 8.06525 16.8502C8.10803 16.8502 8.16149 16.8609 8.19357 16.893C8.91 17.5667 10.0755 18.5718 11.5512 19.5556C13.9785 21.1702 16.4165 22.154 18.8118 22.5069C18.8759 22.5176 18.9294 22.5603 18.9401 22.6245C18.9508 22.6887 18.9294 22.7528 18.8759 22.7956C17.967 23.4158 16.994 24.0039 15.9995 24.5279C13.2835 25.9393 8.92069 27.7037 3.55278 27.9283Z" fill="#333333"/>
</svg>
