<svg width="30" height="32" viewBox="0 0 30 32" fill="none" xmlns="http://www.w3.org/2000/svg">
<path d="M0.959963 31.5264H28.7726C29.2324 31.5264 29.6174 31.1521 29.6174 30.6816C29.6174 30.4571 29.5318 30.2432 29.3714 30.0828C29.211 29.9224 28.9972 29.8369 28.7833 29.8369H28.0883C27.9706 29.8369 27.8744 29.7406 27.8744 29.623C27.7354 22.7474 26.217 17.3688 23.3512 13.6369C22.4423 12.4499 21.4158 11.4662 20.3037 10.7284C20.2396 10.6856 20.2075 10.6107 20.2075 10.5359C20.2075 10.461 20.2609 10.3862 20.3251 10.3541C23.672 8.73944 26.356 11.1561 26.4629 11.2523C26.6233 11.402 26.8265 11.4769 27.0404 11.4769C27.1794 11.4769 27.3077 11.4448 27.436 11.3806C27.7568 11.2095 27.9279 10.8674 27.8744 10.5038C27.1687 6.01271 24.9659 4.59053 23.7041 4.13073C23.3512 4.00241 22.9877 3.91687 22.6134 3.88479C22.5386 3.8741 22.4851 3.83133 22.453 3.77786C22.4209 3.72439 22.4209 3.63885 22.453 3.5747L23.5116 1.45746C23.6293 1.22222 23.6293 0.954892 23.5223 0.719645C23.4047 0.484397 23.2015 0.313309 22.9449 0.259844C22.8059 0.227765 19.6194 -0.435209 16.9568 2.22737C15.9196 3.26459 15.4063 4.4836 15.4384 5.86301C15.4491 6.28004 15.5132 6.72915 15.6202 7.17826C15.6415 7.25311 15.6095 7.33865 15.5453 7.39212C15.4811 7.44558 15.3956 7.45628 15.3208 7.4242C14.4118 7.00717 13.535 6.79331 12.7116 6.78262C11.3322 6.76123 10.1132 7.27449 9.076 8.30103C6.42412 10.9529 7.08709 14.1501 7.10848 14.2891C7.16194 14.5458 7.33303 14.7596 7.56828 14.8666C7.79283 14.9735 8.08154 14.9735 8.3061 14.8559L10.2309 13.8935C10.295 13.8614 10.3699 13.8614 10.434 13.9042C10.4982 13.947 10.541 14.0111 10.541 14.086C10.5837 15.7327 11.2146 17.6361 12.4229 19.7426C12.5726 19.9992 12.8507 20.1596 13.1501 20.1596C13.2142 20.1596 13.2784 20.149 13.3318 20.1383C13.6954 20.0527 13.952 19.7533 13.9841 19.3791C13.9841 19.3256 14.4332 13.8614 17.8443 11.8084C17.8978 11.7763 17.9512 11.7656 18.0047 11.787C18.0582 11.7977 18.1116 11.8404 18.133 11.8939C19.5445 14.4068 22.6776 21.1113 21.2554 29.1846C21.234 29.2915 21.1485 29.3664 21.0415 29.3664C20.9346 29.3664 20.8491 29.2915 20.8384 29.1846C20.5069 26.9391 19.3841 24.886 17.6625 23.389C15.9303 21.8705 13.7061 21.0365 11.4071 21.0365C9.02254 21.0365 6.74491 21.924 4.99125 23.528C3.23759 25.1212 2.15759 27.2919 1.92234 29.6337C1.91165 29.7406 1.81541 29.8262 1.70848 29.8262H0.981349C0.521547 29.8262 0.136597 30.2004 0.136597 30.6709C0.136597 31.1414 0.489468 31.5264 0.959963 31.5264ZM11.0542 11.5731C11.0328 11.6159 11.0008 11.648 10.958 11.6693L9.03323 12.6317C9.00115 12.6424 8.96907 12.6531 8.93699 12.6531C8.89422 12.6531 8.85145 12.6424 8.80867 12.6103C8.74452 12.5676 8.71244 12.482 8.72313 12.4072C8.90491 11.3272 9.41818 10.322 10.2309 9.52004C10.9366 8.8143 11.7279 8.47212 12.6475 8.49351C13.3639 8.5042 14.1445 8.72875 14.9679 9.15647C15.0534 9.19925 15.0962 9.29548 15.0748 9.39172C15.0534 9.48796 14.9679 9.55212 14.8716 9.55212C13.8879 9.56281 13.1608 9.69113 12.733 9.90499C12.0059 10.2899 11.4392 10.846 11.0542 11.5731ZM15.4491 11.5945C14.3691 12.7066 13.535 14.1929 12.9469 16.0321C12.9148 16.1177 12.84 16.1818 12.7437 16.1818C12.6475 16.1818 12.5726 16.1177 12.5406 16.0321C12.1556 14.781 12.0808 13.7117 12.3267 12.867C12.5299 12.1933 12.9255 11.7014 13.5029 11.402C13.7275 11.2844 14.2194 11.2309 14.9572 11.2309C15.0641 11.2309 15.1817 11.2309 15.2994 11.2309C15.3849 11.2309 15.4598 11.2844 15.4918 11.3593C15.5239 11.4448 15.5132 11.5303 15.4491 11.5945ZM18.0582 7.94816C18.0368 8.0337 17.9619 8.09786 17.8764 8.10855C17.8657 8.10855 17.8657 8.10855 17.855 8.10855C17.7695 8.10855 17.6946 8.06578 17.6625 7.99093C17.2883 7.23172 17.0958 6.51529 17.0851 5.85232C17.0744 4.94341 17.4059 4.15212 18.1116 3.43568C18.9136 2.6337 19.9188 2.10974 20.9988 1.93865C21.0843 1.92796 21.1592 1.96004 21.2019 2.0242C21.2447 2.08836 21.2554 2.1739 21.2233 2.24875L20.1433 4.3339C20.1219 4.36598 20.1006 4.39806 20.0578 4.41944C19.8546 4.53707 19.6728 4.66539 19.5124 4.8044C18.9992 5.27489 18.4966 6.35489 18.0582 7.94816ZM19.8867 8.68598C19.8332 8.68598 19.7905 8.6646 19.7477 8.63252C19.6835 8.57905 19.6621 8.49351 19.6835 8.41866C19.876 7.68083 20.2716 6.39767 20.6352 6.06618C20.9988 5.74539 21.5655 5.55291 22.1536 5.55291C22.4851 5.55291 22.8166 5.60638 23.1267 5.724C24.1425 6.08756 24.9766 6.99648 25.5433 8.33311C25.5754 8.40796 25.554 8.5042 25.5006 8.56835C25.4471 8.63251 25.3508 8.6539 25.2653 8.62182C25.0621 8.54697 24.859 8.47212 24.6665 8.41866C23.5758 8.08717 21.8756 7.8733 19.9722 8.67529C19.9402 8.68598 19.9081 8.68598 19.8867 8.68598ZM21.0736 14.1822C21.0308 14.086 21.0736 13.979 21.1592 13.9149C21.2447 13.8614 21.3623 13.8721 21.4372 13.9577C25.1691 18.1921 26.078 24.8111 26.1849 29.623C26.1849 29.6765 26.1635 29.7406 26.1208 29.7727C26.078 29.8155 26.0245 29.8369 25.971 29.8369H23.0946C23.0305 29.8369 22.9663 29.8048 22.9342 29.762C22.9021 29.7192 22.8807 29.6444 22.8914 29.5909C23.8752 24.1482 22.8701 19.3149 21.8435 16.2246C21.5976 15.5402 21.3516 14.8559 21.0736 14.1822ZM3.60115 29.6016C4.09303 25.6773 7.43996 22.726 11.3857 22.726C15.3421 22.726 18.6891 25.6773 19.1703 29.6016C19.181 29.6658 19.1596 29.7193 19.1168 29.7727C19.074 29.8262 19.0206 29.8476 18.9564 29.8476H3.80432C3.74016 29.8476 3.6867 29.8262 3.64392 29.7727C3.61184 29.7299 3.59046 29.6658 3.60115 29.6016Z" fill="#333333"/>
</svg>
