<svg width="16" height="18" viewBox="0 0 16 18" fill="none" xmlns="http://www.w3.org/2000/svg">
<path fill-rule="evenodd" clip-rule="evenodd" d="M8.79296 0.333496V8.44697H7.19596V0.333496H8.79296ZM12.5465 4.63917C12.5453 4.63917 13.6632 3.47747 13.6644 3.47747C16.7785 6.71364 16.7785 12.0243 13.6644 15.2604C12.0674 16.837 10.0712 17.6668 7.99506 17.6668C5.91896 17.6668 3.92272 16.837 2.32572 15.2604C-0.788422 12.0243 -0.788422 6.71364 2.40557 3.47747C2.40523 3.47747 2.49572 3.57102 2.62535 3.70502C2.95251 4.04324 3.52896 4.63917 3.52347 4.63917C1.04812 7.21151 1.04812 11.4434 3.52347 14.0158C5.99881 16.5881 10.0712 16.5881 12.5465 14.0158C15.0218 11.4434 15.0218 7.21151 12.5465 4.63917Z" fill="#495867"/>
</svg>
