<svg width="22" height="16" viewBox="0 0 22 16" fill="none" xmlns="http://www.w3.org/2000/svg">
<path fill-rule="evenodd" clip-rule="evenodd" d="M21.6666 0.666504H0.333252V15.3332H21.6666V0.666504ZM1.36746 1.70507L20.5573 1.7751V1.92475V14.1422V14.2919L1.36746 14.2205V1.70507ZM3.39992 7.88746C3.39992 9.29431 4.54507 10.4395 5.95192 10.4395C6.80221 10.4395 7.59307 10.0189 8.06849 9.31374C8.21021 9.1046 8.15421 8.82003 7.94507 8.67946C7.73707 8.5366 7.45135 8.59374 7.31078 8.80174C7.00564 9.25431 6.49707 9.52403 5.95192 9.52403C5.04907 9.52403 4.31421 8.79031 4.31421 7.88746C4.31421 6.98346 5.04907 6.2486 5.95192 6.2486C6.47764 6.2486 6.97592 6.50346 7.28221 6.93088C7.42849 7.13317 7.71421 7.18231 7.91992 7.03488C8.12449 6.8886 8.17135 6.60288 8.02392 6.39717C7.54621 5.73203 6.77135 5.33317 5.95192 5.33317C4.54507 5.33317 3.39992 6.47945 3.39992 7.88746ZM9.19015 11.2017C8.93757 11.2017 8.733 10.996 8.733 10.7446V6.17317C8.733 5.9686 8.86786 5.79031 9.06443 5.73317C9.261 5.6806 9.47015 5.75831 9.57757 5.93088L11.0953 8.35717L12.6119 5.93088C12.7204 5.75717 12.9296 5.67946 13.1261 5.73317C13.3216 5.79031 13.4564 5.9686 13.4564 6.17317V9.98231C13.4564 10.2337 13.2519 10.4395 12.9993 10.4395C12.7479 10.4395 12.5433 10.2337 12.5433 9.98231V7.76631L11.4827 9.46231C11.3147 9.72974 10.8747 9.72974 10.7067 9.46231L9.64729 7.76631V10.7446C9.64729 10.996 9.44272 11.2017 9.19015 11.2017ZM17.6445 11.0829C17.7325 11.1618 17.8422 11.2018 17.9519 11.2018C18.0754 11.2018 18.1999 11.1503 18.2902 11.052C18.4594 10.8646 18.4468 10.5755 18.2594 10.4063L16.6685 8.95947C17.1279 8.66805 17.6468 8.1549 17.6468 7.31605C17.6468 6.04976 16.3519 5.7149 15.6662 5.7149H14.5554C14.3028 5.7149 14.0982 5.92062 14.0982 6.17319V9.98233C14.0982 10.2338 14.3028 10.4395 14.5554 10.4395C14.8079 10.4395 15.0125 10.2338 15.0125 9.98233V6.63033H15.6662C15.6765 6.63033 16.7337 6.63833 16.7337 7.31605C16.7337 8.08701 15.7883 8.38248 15.7316 8.40019L15.7302 8.40062C15.5714 8.44747 15.4491 8.57547 15.4125 8.73662C15.3759 8.89662 15.4274 9.0669 15.5497 9.17776L17.6445 11.0829Z" fill="#495867"/>
</svg>
