<svg width="48" height="48" viewBox="0 0 48 48" fill="none" xmlns="http://www.w3.org/2000/svg">
<path d="M38.3333 14.4369H11.8345L10.8753 10.6H5V12.6383H9.31655L14.4724 34.4609H18.0695C17.1103 34.9405 16.3909 36.0196 16.3909 37.2187C16.3909 39.0172 17.8297 40.4561 19.6283 40.4561C21.4269 40.4561 22.7458 39.0172 22.7458 37.2187C22.7458 36.0196 22.0264 34.9405 21.0671 34.4609H28.0216C27.0623 34.9405 26.3429 36.0196 26.3429 37.2187C26.3429 39.0172 27.7818 40.4561 29.5803 40.4561C31.3789 40.4561 32.6978 39.0172 32.6978 37.2187C32.6978 36.0196 31.9784 34.9405 31.0192 34.4609H34.976V32.4225H16.0312L15.3118 29.6647H35.2158L38.3333 14.4369ZM19.5084 38.6575C18.6691 38.6575 18.0695 38.058 18.0695 37.2187C18.0695 36.3794 18.6691 35.7798 19.5084 35.7798C20.3477 35.7798 20.9472 36.3794 20.9472 37.2187C20.9472 38.058 20.3477 38.6575 19.5084 38.6575ZM29.4604 38.6575C28.6211 38.6575 28.0216 38.058 28.0216 37.2187C28.0216 36.3794 28.6211 35.7798 29.4604 35.7798C30.2998 35.7798 30.8993 36.3794 30.8993 37.2187C30.8993 38.058 30.1799 38.6575 29.4604 38.6575ZM14.952 27.6264L12.3141 16.5952H35.9353L33.777 27.6264H14.952Z" fill="white"/>
</svg>
