<svg width="191" height="30" viewBox="0 0 191 30" fill="none" xmlns="http://www.w3.org/2000/svg">
<path fill-rule="evenodd" clip-rule="evenodd" d="M73.391 7.76144C76.4258 8.78806 78.2967 11.0138 79.033 14.1619C79.738 17.1714 78.9537 20.0554 77.1934 22.3514C74.8698 25.3759 69.0652 26.7177 65.4652 23.7678L65.3338 24.9691H61.4439V19.2098V4.66879C61.4439 2.08946 63.4921 0 66.0159 0V8.98401C67.6865 7.36527 70.6358 6.80936 73.391 7.76144ZM70.7526 21.0777C72.6318 20.8605 73.8958 19.7316 74.4444 17.902C75.2119 14.9116 73.5683 11.2247 69.2529 11.6784C67.1359 12.0085 66.1201 13.6123 66.1201 13.6123V19.2076C67.3194 20.7007 68.9755 21.2843 70.7526 21.0777ZM11.7761 4.48135H7.33557C5.81089 4.48135 4.57196 5.74439 4.57196 7.30137V10.0234H9.73V14.4664H4.57196V25.3312C4.57196 27.9105 2.52375 30 0 30V7.50371C0 3.38018 3.27253 0.0383301 7.31053 0.0383301H11.7761V4.48135ZM37.8543 25.0076H33.2823V4.71798C33.2823 2.13864 35.3305 0.0491943 37.8543 0.0491943V25.0076ZM106.467 25.0076H101.895V4.71798C101.895 2.13864 103.943 0.0491943 106.467 0.0491943V25.0076ZM109.575 25.0076H114.147V0.0491943C111.623 0.0491943 109.575 2.13864 109.575 4.71798V25.0076ZM90.8842 25.4568C84.0012 25.4568 81.1479 20.5729 81.4337 15.5846C81.6568 11.7081 84.5769 7.29492 90.6068 7.29492C97.4293 7.29492 100.168 13.6101 99.175 18.2853H86.3581C86.6147 20.0404 88.2812 21.2502 90.5275 21.4035C93.2202 21.5867 94.9556 19.5228 94.9556 19.5228L98.4283 21.395C96.7326 24.2768 94.0357 25.4568 90.8842 25.4568ZM90.5984 11.3524C87.3634 11.3311 86.3748 14.1362 86.3915 14.935H94.6573C94.7324 14.2321 94.0712 11.3737 90.5984 11.3524ZM30.2141 8.19999C29.188 8.19999 28.2473 8.5642 27.5068 9.16697C25.2584 7.50989 21.9692 6.64727 18.3379 7.9018C15.3219 8.92203 13.4614 11.135 12.7294 14.2639C12.0285 17.2564 12.8086 20.1254 14.5585 22.4023C16.8612 25.397 22.5928 26.7324 26.174 23.8485L26.5349 25.0072H30.2162V12.545L30.2141 8.19999ZM25.6985 19.3863C24.4116 20.905 22.7284 21.25 20.9597 21.0455C19.0929 20.8283 17.8352 19.8038 17.2888 17.9827C16.5254 15.0115 18.1606 11.25 22.4489 11.6994C24.8058 12.0722 25.6964 13.823 25.6964 13.823V19.3863H25.6985ZM132.207 9.17112C132.947 8.56835 133.888 8.20414 134.914 8.20414H134.916V12.5492V25.0114H131.235L130.874 23.8527C127.293 26.7366 121.561 25.4011 119.259 22.4065C117.509 20.1296 116.729 17.2606 117.43 14.268C118.162 11.1392 120.022 8.92618 123.038 7.90595C126.669 6.65142 129.959 7.51404 132.207 9.17112ZM125.66 21.0497C127.429 21.2542 129.112 20.9091 130.399 19.3905H130.397V13.8271C130.397 13.8271 129.506 12.0763 127.149 11.7036C122.861 11.2542 121.226 15.0156 121.989 17.9869C122.535 19.808 123.793 20.8324 125.66 21.0497ZM55.6643 9.16697C53.4159 7.50989 50.1267 6.64727 46.4954 7.9018C43.4794 8.92203 41.6189 11.135 40.8868 14.2639C40.186 17.2564 40.9661 20.1254 42.716 22.4023C45.0187 25.397 50.7503 26.7324 54.3315 23.8485L54.6924 25.0072H58.3737V12.545V8.19785C57.3454 8.19998 56.4068 8.56207 55.6643 9.16697ZM53.856 19.3863C52.5691 20.905 50.8859 21.25 49.1172 21.0455C47.2504 20.8283 45.9927 19.8038 45.4463 17.9827C44.6829 15.0115 46.3181 11.25 50.6064 11.6994C52.9633 12.0722 53.8539 13.823 53.8539 13.823V19.3863H53.856ZM154.564 17.8007C154.564 13.7091 157.622 10.6207 161.676 10.6207C165.746 10.6207 168.814 13.707 168.816 17.8007C168.816 21.9115 165.746 25.0084 161.676 25.0084C157.622 25.0084 154.564 21.9115 154.564 17.8007ZM158.229 17.7986C158.229 19.9647 159.676 21.5366 161.674 21.5366C163.656 21.5366 165.151 19.9306 165.151 17.7986C165.151 15.6857 163.658 14.0925 161.674 14.0925C159.71 14.0925 158.229 15.6857 158.229 17.7986ZM185.667 10.6199C183.566 10.4559 181.771 11.5678 180.769 12.2004C179.62 11.2547 178.34 10.6199 176.702 10.6199C173.653 10.6199 170.541 12.49 170.541 12.49V24.6817H174.099V14.5752C174.673 14.1514 175.709 14.0939 176.289 14.0939C177.505 14.0939 178.924 15.0672 178.924 16.7115V24.6817H182.482V15.7935C182.482 15.0779 182.29 14.7137 182.29 14.7137C184.664 13.3612 187.442 14.392 187.442 16.7094V24.6796H191V16.654C190.998 12.7584 188.047 10.8053 185.667 10.6199ZM148.407 14.0922C146.718 14.0922 145.291 15.5512 145.014 17.2189C144.117 16.3265 142.938 15.728 141.626 15.5682C142.534 12.6353 145.218 10.6183 148.568 10.6183C151.542 10.6183 153.59 12.3201 153.59 12.3201L151.771 15.2381C151.771 15.2381 150.386 14.0922 148.407 14.0922ZM151.867 20.309C151.867 20.309 150.505 21.5337 148.409 21.5337C147.817 21.5337 147.258 21.3526 146.768 21.0459C146.778 21.195 146.786 21.3441 146.786 21.4953C146.786 22.6157 146.484 23.6636 145.958 24.5603C146.763 24.85 147.642 25.0076 148.572 25.0076C151.903 25.0076 153.772 23.0374 153.772 23.0374L151.867 20.309ZM144.21 21.4975C144.21 23.3431 142.745 24.8393 140.938 24.8393C139.131 24.8393 137.665 23.3431 137.665 21.4975C137.665 19.6518 139.131 18.1556 140.938 18.1556C142.745 18.1556 144.21 19.6518 144.21 21.4975Z" fill="white"/>
</svg>
