<svg width="242" height="70" viewBox="0 0 242 70" fill="none" xmlns="http://www.w3.org/2000/svg">
<rect width="242" height="70" fill="#E5E5E5"/>
<g clip-path="url(#clip0_185_4487)">
<rect width="1440" height="1121" fill="white"/>
<path d="M0 0H1440V70H0V0Z" fill="#FF6200"/>
<path d="M-1 70L210.712 70C227.992 70 242 54.33 242 35C242 15.67 227.992 0 210.712 0L-1 0V38V70Z" fill="#FF9301"/>
<path d="M-1 70L210.712 70C227.992 70 242 54.33 242 35C242 15.67 227.992 0 210.712 0L-1 0V38V70Z" fill="url(#paint0_linear_185_4487)"/>
<path fill-rule="evenodd" clip-rule="evenodd" d="M104.391 27.7614C107.426 28.7881 109.297 31.0138 110.033 34.1619C110.738 37.1714 109.954 40.0554 108.193 42.3514C105.87 45.3759 100.065 46.7177 96.4652 43.7678L96.3338 44.9691H92.4439V39.2098V24.6688C92.4439 22.0895 94.4921 20 97.0159 20V28.984C98.6865 27.3653 101.636 26.8094 104.391 27.7614ZM101.753 41.0777C103.632 40.8605 104.896 39.7316 105.444 37.902C106.212 34.9116 104.568 31.2247 100.253 31.6784C98.1359 32.0085 97.1201 33.6123 97.1201 33.6123V39.2076C98.3194 40.7007 99.9755 41.2843 101.753 41.0777ZM42.7761 24.4814H38.3356C36.8109 24.4814 35.572 25.7444 35.572 27.3014V30.0234H40.73V34.4664H35.572V45.3312C35.572 47.9105 33.5238 50 31 50V27.5037C31 23.3802 34.2725 20.0383 38.3105 20.0383H42.7761V24.4814ZM68.8543 45.0076H64.2823V24.718C64.2823 22.1386 66.3305 20.0492 68.8543 20.0492V45.0076ZM137.467 45.0076H132.895V24.718C132.895 22.1386 134.943 20.0492 137.467 20.0492V45.0076ZM140.575 45.0076H145.147V20.0492C142.623 20.0492 140.575 22.1386 140.575 24.718V45.0076ZM121.884 45.4568C115.001 45.4568 112.148 40.5729 112.434 35.5846C112.657 31.7081 115.577 27.2949 121.607 27.2949C128.429 27.2949 131.168 33.6101 130.175 38.2853H117.358C117.615 40.0404 119.281 41.2502 121.528 41.4035C124.22 41.5867 125.956 39.5228 125.956 39.5228L129.428 41.395C127.733 44.2768 125.036 45.4568 121.884 45.4568ZM121.598 31.3524C118.363 31.3311 117.375 34.1362 117.391 34.935H125.657C125.732 34.2321 125.071 31.3737 121.598 31.3524ZM61.2141 28.2C60.188 28.2 59.2473 28.5642 58.5068 29.167C56.2584 27.5099 52.9692 26.6473 49.3379 27.9018C46.3219 28.922 44.4614 31.135 43.7294 34.2639C43.0285 37.2564 43.8086 40.1254 45.5585 42.4023C47.8612 45.397 53.5928 46.7324 57.174 43.8485L57.5349 45.0072H61.2162V32.545L61.2141 28.2ZM56.6985 39.3863C55.4116 40.905 53.7284 41.25 51.9597 41.0455C50.0929 40.8283 48.8352 39.8038 48.2888 37.9827C47.5254 35.0115 49.1606 31.25 53.4489 31.6994C55.8058 32.0722 56.6964 33.823 56.6964 33.823V39.3863H56.6985ZM163.207 29.1711C163.947 28.5684 164.888 28.2041 165.914 28.2041H165.916V32.5492V45.0114H162.235L161.874 43.8527C158.293 46.7366 152.561 45.4011 150.259 42.4065C148.509 40.1296 147.729 37.2606 148.43 34.268C149.162 31.1392 151.022 28.9262 154.038 27.9059C157.669 26.6514 160.959 27.514 163.207 29.1711ZM156.66 41.0497C158.429 41.2542 160.112 40.9091 161.399 39.3905H161.397V33.8271C161.397 33.8271 160.506 32.0763 158.149 31.7036C153.861 31.2542 152.226 35.0156 152.989 37.9869C153.535 39.808 154.793 40.8324 156.66 41.0497ZM86.6643 29.167C84.4159 27.5099 81.1267 26.6473 77.4954 27.9018C74.4794 28.922 72.6189 31.135 71.8868 34.2639C71.186 37.2564 71.9661 40.1254 73.716 42.4023C76.0187 45.397 81.7503 46.7324 85.3315 43.8485L85.6924 45.0072H89.3737V32.545V28.1979C88.3454 28.2 87.4068 28.5621 86.6643 29.167ZM84.856 39.3863C83.5691 40.905 81.8859 41.25 80.1172 41.0455C78.2504 40.8283 76.9927 39.8038 76.4463 37.9827C75.6829 35.0115 77.3181 31.25 81.6064 31.6994C83.9633 32.0722 84.8539 33.823 84.8539 33.823V39.3863H84.856ZM185.564 37.8007C185.564 33.7091 188.622 30.6207 192.676 30.6207C196.746 30.6207 199.814 33.707 199.816 37.8007C199.816 41.9115 196.746 45.0084 192.676 45.0084C188.622 45.0084 185.564 41.9115 185.564 37.8007ZM189.229 37.7986C189.229 39.9647 190.676 41.5366 192.674 41.5366C194.656 41.5366 196.151 39.9306 196.151 37.7986C196.151 35.6857 194.658 34.0925 192.674 34.0925C190.71 34.0925 189.229 35.6857 189.229 37.7986ZM216.667 30.6199C214.566 30.4559 212.771 31.5678 211.769 32.2004C210.62 31.2547 209.34 30.6199 207.702 30.6199C204.653 30.6199 201.541 32.49 201.541 32.49V44.6817H205.099V34.5752C205.673 34.1514 206.709 34.0939 207.289 34.0939C208.505 34.0939 209.924 35.0672 209.924 36.7115V44.6817H213.482V35.7935C213.482 35.0779 213.29 34.7137 213.29 34.7137C215.664 33.3612 218.442 34.392 218.442 36.7094V44.6796H222V36.654C221.998 32.7584 219.047 30.8053 216.667 30.6199ZM179.407 34.0922C177.718 34.0922 176.291 35.5512 176.014 37.2189C175.117 36.3265 173.938 35.728 172.626 35.5682C173.534 32.6353 176.218 30.6183 179.568 30.6183C182.542 30.6183 184.59 32.3201 184.59 32.3201L182.771 35.2381C182.771 35.2381 181.386 34.0922 179.407 34.0922ZM182.867 40.309C182.867 40.309 181.505 41.5337 179.409 41.5337C178.817 41.5337 178.258 41.3526 177.768 41.0459C177.778 41.195 177.786 41.3441 177.786 41.4953C177.786 42.6157 177.484 43.6636 176.958 44.5603C177.763 44.85 178.642 45.0076 179.572 45.0076C182.903 45.0076 184.772 43.0374 184.772 43.0374L182.867 40.309ZM175.21 41.4975C175.21 43.3431 173.745 44.8393 171.938 44.8393C170.131 44.8393 168.665 43.3431 168.665 41.4975C168.665 39.6518 170.131 38.1556 171.938 38.1556C173.745 38.1556 175.21 39.6518 175.21 41.4975Z" fill="white"/>
<g filter="url(#filter0_d_185_4487)">
<rect y="70" width="1440" height="50" fill="white"/>
</g>
</g>
<defs>
<filter id="filter0_d_185_4487" x="-4" y="68" width="1448" height="58" filterUnits="userSpaceOnUse" color-interpolation-filters="sRGB">
<feFlood flood-opacity="0" result="BackgroundImageFix"/>
<feColorMatrix in="SourceAlpha" type="matrix" values="0 0 0 0 0 0 0 0 0 0 0 0 0 0 0 0 0 0 127 0" result="hardAlpha"/>
<feOffset dy="2"/>
<feGaussianBlur stdDeviation="2"/>
<feColorMatrix type="matrix" values="0 0 0 0 0 0 0 0 0 0 0 0 0 0 0 0 0 0 0.05 0"/>
<feBlend mode="normal" in2="BackgroundImageFix" result="effect1_dropShadow_185_4487"/>
<feBlend mode="normal" in="SourceGraphic" in2="effect1_dropShadow_185_4487" result="shape"/>
</filter>
<linearGradient id="paint0_linear_185_4487" x1="50" y1="70" x2="50" y2="0" gradientUnits="userSpaceOnUse">
<stop offset="0.348958" stop-color="#FF8701"/>
<stop offset="1" stop-color="#FF9501"/>
</linearGradient>
<clipPath id="clip0_185_4487">
<rect width="1440" height="1121" fill="white"/>
</clipPath>
</defs>
</svg>
