<svg width="24" height="25" viewBox="0 0 24 25" fill="none" xmlns="http://www.w3.org/2000/svg">
<path fill-rule="evenodd" clip-rule="evenodd" d="M2.5 11.2917C2.5 6.47183 6.26375 2.625 10.8333 2.625C15.4029 2.625 19.1667 6.47183 19.1667 11.2917C19.1667 13.648 18.2671 15.7718 16.8136 17.3272C16.7849 17.3494 16.7571 17.3734 16.7304 17.3993C16.6865 17.4417 16.6473 17.4871 16.6128 17.535C15.1096 19.0385 13.0678 19.9583 10.8333 19.9583C6.26375 19.9583 2.5 16.1115 2.5 11.2917ZM17.3981 19.5305C15.6175 21.0454 13.3342 21.9583 10.8333 21.9583C5.09361 21.9583 0.5 17.1493 0.5 11.2917C0.5 5.434 5.09361 0.625 10.8333 0.625C16.5731 0.625 21.1667 5.434 21.1667 11.2917C21.1667 13.8692 20.2772 16.2438 18.792 18.0948L23.2194 22.6803C23.603 23.0776 23.5919 23.7107 23.1946 24.0943C22.7973 24.4779 22.1642 24.4668 21.7806 24.0695L17.3981 19.5305Z" fill="white"/>
</svg>
